<svg width="17" height="16" viewBox="0 0 17 16" fill="none" xmlns="http://www.w3.org/2000/svg">
<path fill-rule="evenodd" clip-rule="evenodd" d="M5.57039 1.00098C5.38926 1.00098 5.22228 1.09894 5.13392 1.25707C5.04556 1.41519 5.04963 1.60874 5.14456 1.76301L6.12362 3.35412C3.8007 4.69676 1.91675 6.47285 1.91675 9.33431C1.91675 11.3332 2.78937 12.7707 4.03594 13.6935C5.26444 14.603 6.83358 14.999 8.25026 14.999C9.66693 14.999 11.236 14.603 12.4644 13.6935C13.7109 12.7706 14.5834 11.3332 14.5834 9.33431C14.5834 6.46486 12.6892 4.68683 10.3573 3.34284L11.3295 1.76304C11.4245 1.60877 11.4286 1.41522 11.3402 1.25708C11.2518 1.09895 11.0849 1.00098 10.9037 1.00098H5.57039ZM9.2909 3.16764L10.0089 2.00098H6.46514L7.18303 3.16764H9.2909ZM6.71507 4.16764C4.44139 5.46342 2.91675 6.98904 2.91675 9.33431C2.91675 11.002 3.62746 12.1469 4.63094 12.8898C5.65248 13.646 7.00009 13.999 8.25026 13.999C9.50043 13.999 10.8479 13.646 11.8694 12.8898C12.8728 12.1469 13.5834 11.002 13.5834 9.33431C13.5834 6.98901 12.059 5.4634 9.78537 4.16764H6.71507Z" fill="#005DAC"/>
<path d="M10.1334 7.12607C10.2801 6.89212 10.2094 6.58354 9.97543 6.43682C9.74149 6.29011 9.4329 6.36083 9.28619 6.59477L6.33958 11.2933C6.19286 11.5273 6.26358 11.8359 6.49752 11.9826C6.73146 12.1293 7.04005 12.0586 7.18676 11.8246L10.1334 7.12607Z" fill="#005DAC"/>
<path fill-rule="evenodd" clip-rule="evenodd" d="M5.29696 7.74128C5.29696 7.04172 5.86406 6.47461 6.56362 6.47461C7.26318 6.47461 7.83029 7.04172 7.83029 7.74128C7.83029 8.44084 7.26318 9.00794 6.56362 9.00794C5.86406 9.00794 5.29696 8.44084 5.29696 7.74128ZM6.56362 7.34128C6.34271 7.34128 6.16362 7.52036 6.16362 7.74128C6.16362 7.96219 6.34271 8.14128 6.56362 8.14128C6.78454 8.14128 6.96362 7.96219 6.96362 7.74128C6.96362 7.52036 6.78454 7.34128 6.56362 7.34128Z" fill="#005DAC"/>
<path fill-rule="evenodd" clip-rule="evenodd" d="M8.67065 10.6098C8.67065 9.9102 9.23776 9.3431 9.93732 9.3431C10.6369 9.3431 11.204 9.9102 11.204 10.6098C11.204 11.3093 10.6369 11.8764 9.93732 11.8764C9.23776 11.8764 8.67065 11.3093 8.67065 10.6098ZM9.93732 10.2098C9.71641 10.2098 9.53732 10.3889 9.53732 10.6098C9.53732 10.8307 9.71641 11.0098 9.93732 11.0098C10.1582 11.0098 10.3373 10.8307 10.3373 10.6098C10.3373 10.3889 10.1582 10.2098 9.93732 10.2098Z" fill="#005DAC"/>
</svg>
